HIERARCHY
ROOT Hips
{
	OFFSET 0.088083 -1.307260 70.510933
	CHANNELS 6 Xposition Yposition Zposition Xrotation Yrotation Zrotation
	JOINT Pelvis
	{
		OFFSET 0.000001 -0.000000 0.000000
		CHANNELS 3 Xrotation Yrotation Zrotation
		JOINT LeftUpLeg
		{
			OFFSET 6.829985 1.579747 -2.255630
			CHANNELS 3 Xrotation Yrotation Zrotation
			JOINT LeftLeg
			{
				OFFSET 2.474139 -12.671513 -26.246498
				CHANNELS 3 Xrotation Yrotation Zrotation
				JOINT LeftFoot
				{
					OFFSET -3.195396 13.659576 -26.029882
					CHANNELS 3 Xrotation Yrotation Zrotation
					JOINT LeftToeBase
					{
						OFFSET 3.820951 -10.843364 -14.495878
						CHANNELS 3 Xrotation Yrotation Zrotation
						End Site
						{
							OFFSET 1.186852 -7.443274 16.896681
						}
					}
				}
			}
			JOINT Left_ShortSleeve
			{
				OFFSET 1.281475 -5.302948 -9.027115
				CHANNELS 3 Xrotation Yrotation Zrotation
				End Site
				{
					OFFSET 0.144164 8.512192 17.985718
				}
			}
		}
		JOINT RightUpLeg
		{
			OFFSET -6.667076 0.207482 -3.120773
			CHANNELS 3 Xrotation Yrotation Zrotation
			JOINT RightLeg
			{
				OFFSET 0.352222 -5.376112 -28.749668
				CHANNELS 3 Xrotation Yrotation Zrotation
				JOINT RightFoot
				{
					OFFSET 2.474884 7.362429 -28.530973
					CHANNELS 3 Xrotation Yrotation Zrotation
					JOINT RightToeBase
					{
						OFFSET -1.703627 -16.323120 -8.682802
						CHANNELS 3 Xrotation Yrotation Zrotation
						End Site
						{
							OFFSET 0.000009 -0.000003 18.567112
						}
					}
				}
			}
			JOINT Right_ShortSleeve
			{
				OFFSET -0.129637 -2.817712 -10.163452
				CHANNELS 3 Xrotation Yrotation Zrotation
				End Site
				{
					OFFSET -2.029899 3.217973 19.531746
				}
			}
		}
	}
	JOINT Spine
	{
		OFFSET -1.018586 1.676488 13.231758
		CHANNELS 3 Xrotation Yrotation Zrotation
		JOINT Spine1
		{
			OFFSET 0.008795 -2.090187 13.690018
			CHANNELS 3 Xrotation Yrotation Zrotation
			JOINT Spine2
			{
				OFFSET 0.163209 -1.207157 16.261505
				CHANNELS 3 Xrotation Yrotation Zrotation
				JOINT Neck
				{
					OFFSET 0.401561 -2.284408 18.563934
					CHANNELS 3 Xrotation Yrotation Zrotation
					JOINT Head
					{
						OFFSET -0.184134 -1.600439 6.548080
						CHANNELS 3 Xrotation Yrotation Zrotation
						JOINT Hat
						{
							OFFSET -1.063919 8.880329 27.625793
							CHANNELS 3 Xrotation Yrotation Zrotation
							End Site
							{
								OFFSET -0.115543 -0.953775 22.008911
							}
						}
						JOINT HairD
						{
							OFFSET -10.911836 0.155918 17.403488
							CHANNELS 3 Xrotation Yrotation Zrotation
							JOINT HairD1
							{
								OFFSET -3.188885 -0.707998 -11.109131
								CHANNELS 3 Xrotation Yrotation Zrotation
								End Site
								{
									OFFSET -0.060727 -0.501328 11.568405
								}
							}
						}
						JOINT HairB
						{
							OFFSET -10.804094 -2.633212 17.283188
							CHANNELS 3 Xrotation Yrotation Zrotation
							JOINT HairB1
							{
								OFFSET -1.353610 -3.083057 -13.109344
								CHANNELS 3 Xrotation Yrotation Zrotation
								End Site
								{
									OFFSET -0.070986 -0.585981 13.521988
								}
							}
						}
						JOINT HairA
						{
							OFFSET 9.670906 -1.848344 17.424667
							CHANNELS 3 Xrotation Yrotation Zrotation
							JOINT HairA1
							{
								OFFSET 1.766429 -2.963466 -13.087784
								CHANNELS 3 Xrotation Yrotation Zrotation
								End Site
								{
									OFFSET -0.070979 -0.586003 13.521988
								}
							}
						}
						JOINT HairC
						{
							OFFSET 9.563163 0.940787 17.544983
							CHANNELS 3 Xrotation Yrotation Zrotation
							JOINT HairC1
							{
								OFFSET 3.386734 -0.455934 -11.063690
								CHANNELS 3 Xrotation Yrotation Zrotation
								End Site
								{
									OFFSET -0.060741 -0.501321 11.568405
								}
							}
						}
					}
				}
				JOINT LeftShoulder
				{
					OFFSET 5.287509 -0.605452 15.283783
					CHANNELS 3 Xrotation Yrotation Zrotation
					JOINT LeftArm
					{
						OFFSET 10.119932 0.438281 1.663971
						CHANNELS 3 Xrotation Yrotation Zrotation
						JOINT LeftForeArm
						{
							OFFSET 5.769896 6.035522 -20.317436
							CHANNELS 3 Xrotation Yrotation Zrotation
							JOINT LeftHand
							{
								OFFSET 2.075884 -8.967725 -32.604652
								CHANNELS 3 Xrotation Yrotation Zrotation
								JOINT LeftHandThumb1
								{
									OFFSET -1.534971 -4.527614 -6.254868
									CHANNELS 3 Xrotation Yrotation Zrotation
									JOINT LeftHandThumb2
									{
										OFFSET -0.671717 -1.821419 -2.589775
										CHANNELS 3 Xrotation Yrotation Zrotation
										JOINT LeftHandThumb3
										{
											OFFSET -0.701468 -0.640023 -3.619240
											CHANNELS 3 Xrotation Yrotation Zrotation
											End Site
											{
												OFFSET 3.468494 -0.214733 1.387093
											}
										}
									}
								}
								JOINT LeftHandIndex1
								{
									OFFSET 1.379814 -6.148568 -13.284706
									CHANNELS 3 Xrotation Yrotation Zrotation
									JOINT LeftHandIndex2
									{
										OFFSET -0.269365 -0.397908 -3.519066
										CHANNELS 3 Xrotation Yrotation Zrotation
										JOINT LeftHandIndex3
										{
											OFFSET -0.977533 -0.249261 -2.712685
											CHANNELS 3 Xrotation Yrotation Zrotation
											End Site
											{
												OFFSET 2.878099 -0.299240 0.057911
											}
										}
									}
								}
								JOINT LeftHandMiddle1
								{
									OFFSET 1.494898 -2.285505 -13.503128
									CHANNELS 3 Xrotation Yrotation Zrotation
									JOINT LeftHandMiddle2
									{
										OFFSET -0.726650 -0.342866 -3.343044
										CHANNELS 3 Xrotation Yrotation Zrotation
										JOINT LeftHandMiddle3
										{
											OFFSET -2.140129 -0.196783 -3.001457
											CHANNELS 3 Xrotation Yrotation Zrotation
											End Site
											{
												OFFSET 3.482914 -0.492515 -1.119976
											}
										}
									}
								}
								JOINT LeftHandRing1
								{
									OFFSET 1.174786 0.693964 -14.236374
									CHANNELS 3 Xrotation Yrotation Zrotation
									JOINT LeftHandRing2
									{
										OFFSET -1.108715 -0.267630 -2.949745
										CHANNELS 3 Xrotation Yrotation Zrotation
										JOINT LeftHandRing3
										{
											OFFSET -2.620853 -0.047235 -2.044563
											CHANNELS 3 Xrotation Yrotation Zrotation
											End Site
											{
												OFFSET 2.634001 -0.508943 -1.963253
											}
										}
									}
								}
								JOINT LeftHandPinky1
								{
									OFFSET 1.118374 3.476546 -13.861919
									CHANNELS 3 Xrotation Yrotation Zrotation
									JOINT LeftHandPinky2
									{
										OFFSET -1.196621 -0.216746 -2.576618
										CHANNELS 3 Xrotation Yrotation Zrotation
										JOINT LeftHandPinky3
										{
											OFFSET -2.443949 0.018904 -1.376595
											CHANNELS 3 Xrotation Yrotation Zrotation
											End Site
											{
												OFFSET 2.056499 -0.429385 -1.858673
											}
										}
									}
								}
							}
							JOINT Left_Sleeve
							{
								OFFSET -0.500530 -2.237722 -6.266205
								CHANNELS 3 Xrotation Yrotation Zrotation
								End Site
								{
									OFFSET 18.688656 -7.197020 3.169579
								}
							}
						}
					}
				}
				JOINT RightShoulder
				{
					OFFSET -5.541689 -0.334113 15.424652
					CHANNELS 3 Xrotation Yrotation Zrotation
					JOINT RightArm
					{
						OFFSET -10.262995 0.205508 -0.051193
						CHANNELS 3 Xrotation Yrotation Zrotation
						JOINT RightForeArm
						{
							OFFSET -2.843313 3.218820 -21.542313
							CHANNELS 3 Xrotation Yrotation Zrotation
							JOINT RightHand
							{
								OFFSET -2.339497 -6.629129 -33.141731
								CHANNELS 3 Xrotation Yrotation Zrotation
								JOINT RightHandThumb1
								{
									OFFSET 1.377195 -3.549215 -6.890938
									CHANNELS 3 Xrotation Yrotation Zrotation
									JOINT RightHandThumb2
									{
										OFFSET 0.800861 -1.265415 -2.869331
										CHANNELS 3 Xrotation Yrotation Zrotation
										JOINT RightHandThumb3
										{
											OFFSET 0.482306 -0.101970 -3.709137
											CHANNELS 3 Xrotation Yrotation Zrotation
											End Site
											{
												OFFSET -3.191469 -1.136417 1.588642
											}
										}
									}
								}
								JOINT RightHandIndex1
								{
									OFFSET -2.252256 -5.163772 -13.581421
									CHANNELS 3 Xrotation Yrotation Zrotation
									JOINT RightHandIndex2
									{
										OFFSET 2.243793 0.635577 -2.678848
										CHANNELS 3 Xrotation Yrotation Zrotation
										JOINT RightHandIndex3
										{
											OFFSET 1.777086 0.489589 2.231289
											CHANNELS 3 Xrotation Yrotation Zrotation
											End Site
											{
												OFFSET 1.437233 0.257027 -2.498943
											}
										}
									}
								}
								JOINT RightHandMiddle1
								{
									OFFSET -3.171257 -1.411780 -13.332001
									CHANNELS 3 Xrotation Yrotation Zrotation
									JOINT RightHandMiddle2
									{
										OFFSET 2.485353 0.701792 -2.269794
										CHANNELS 3 Xrotation Yrotation Zrotation
										JOINT RightHandMiddle3
										{
											OFFSET 2.179361 0.599839 2.918591
											CHANNELS 3 Xrotation Yrotation Zrotation
											End Site
											{
												OFFSET 2.089750 0.414979 -3.014683
											}
										}
									}
								}
								JOINT RightHandRing1
								{
									OFFSET -3.576275 1.617503 -13.752430
									CHANNELS 3 Xrotation Yrotation Zrotation
									JOINT RightHandRing2
									{
										OFFSET 2.406239 0.678625 -1.936840
										CHANNELS 3 Xrotation Yrotation Zrotation
										JOINT RightHandRing3
										{
											OFFSET 1.817883 0.499388 2.738102
											CHANNELS 3 Xrotation Yrotation Zrotation
											End Site
											{
												OFFSET 2.110556 0.447084 -2.529224
											}
										}
									}
								}
								JOINT RightHandPinky1
								{
									OFFSET -4.017622 4.305429 -13.069477
									CHANNELS 3 Xrotation Yrotation Zrotation
									JOINT RightHandPinky2
									{
										OFFSET 1.490210 0.424055 -2.391090
										CHANNELS 3 Xrotation Yrotation Zrotation
										JOINT RightHandPinky3
										{
											OFFSET 2.654058 0.740085 0.525871
											CHANNELS 3 Xrotation Yrotation Zrotation
											End Site
											{
												OFFSET -0.327194 -0.196869 -2.778934
											}
										}
									}
								}
							}
							JOINT Right_Sleeve
							{
								OFFSET 0.330111 -1.956339 -6.370796
								CHANNELS 3 Xrotation Yrotation Zrotation
								End Site
								{
									OFFSET -19.862503 -3.489812 2.100334
								}
							}
						}
					}
				}
				JOINT Bind_Right_JacketString
				{
					OFFSET -3.640290 -9.467010 10.234283
					CHANNELS 3 Xrotation Yrotation Zrotation
					JOINT Bind_Right_JacketString1
					{
						OFFSET -0.441279 -1.438704 -6.548782
						CHANNELS 3 Xrotation Yrotation Zrotation
						End Site
						{
							OFFSET 0.050034 -1.413728 6.568871
						}
					}
				}
				JOINT Bind_Left_JacketString
				{
					OFFSET 2.796753 -9.628301 10.150528
					CHANNELS 3 Xrotation Yrotation Zrotation
					JOINT Bind_Left_JacketString1
					{
						OFFSET 0.233933 -1.881311 -6.446533
						CHANNELS 3 Xrotation Yrotation Zrotation
						End Site
						{
							OFFSET 0.050037 -1.413740 6.568924
						}
					}
				}
				JOINT HairE
				{
					OFFSET 6.359574 7.475266 19.576843
					CHANNELS 3 Xrotation Yrotation Zrotation
					JOINT HairE1
					{
						OFFSET 0.270649 2.757019 -6.745026
						CHANNELS 3 Xrotation Yrotation Zrotation
						End Site
						{
							OFFSET 0.054294 -1.534147 7.128342
						}
					}
				}
				JOINT HairF
				{
					OFFSET -0.417734 7.645080 19.665009
					CHANNELS 3 Xrotation Yrotation Zrotation
					JOINT HairF1
					{
						OFFSET -0.046981 5.043033 -13.324341
						CHANNELS 3 Xrotation Yrotation Zrotation
						End Site
						{
							OFFSET 0.106087 -2.997458 13.927536
						}
					}
				}
				JOINT HairG
				{
					OFFSET -7.637764 7.825987 19.758942
					CHANNELS 3 Xrotation Yrotation Zrotation
					JOINT HairG1
					{
						OFFSET -0.313993 2.176278 -5.750061
						CHANNELS 3 Xrotation Yrotation Zrotation
						End Site
						{
							OFFSET 0.045841 -1.295207 6.018173
						}
					}
				}
			}
		}
	}
	JOINT Pouch
	{
		OFFSET 0.618320 -9.948486 6.133583
		CHANNELS 3 Xrotation Yrotation Zrotation
		End Site
		{
			OFFSET -1.735847 3.500235 21.528931
		}
	}
	JOINT Bag
	{
		OFFSET -13.569186 0.017124 3.794769
		CHANNELS 3 Xrotation Yrotation Zrotation
		End Site
		{
			OFFSET -1.735847 3.500230 21.528923
		}
	}
	JOINT OccupyGuyFacialAnim_Joint
	{
		OFFSET 6.414991 -9.504831 -69.290543
		CHANNELS 3 Xrotation Yrotation Zrotation
		End Site
		{
			OFFSET -1.735845 3.500235 21.528927
		}
	}
}
MOTION
Frames: 4
Frame Time: 0.041667
3.671588 -65.477707 69.739594 -0.140859 6.803580 107.617458 -0.000004 -0.000010 -0.000002 -7.088489 -4.489818 5.599646 -17.111734 -11.159546 6.632608 -4.247786 13.208981 8.383145 -0.000002 -0.000002 0.000001 0.000002 0.000002 0.000001 -2.763278 6.820547 -6.038645 6.072690 9.587107 -13.684783 -5.740242 -15.853955 -6.620692 0.000014 0.000000 -0.000002 0.000001 0.000003 -0.000003 -5.537841 3.246461 1.810618 3.073271 -0.416229 0.519300 3.068093 -0.485113 0.524999 -0.509144 -0.106617 0.271744 -5.520378 2.082451 9.606315 0.000000 0.000000 0.000003 0.000002 -0.000001 -0.000001 0.000003 -0.000003 0.000006 0.000000 -0.000000 -0.000001 0.000010 0.000002 0.000011 0.000001 0.000001 0.000011 0.000002 0.000001 0.000004 0.000001 -0.000003 -0.000002 0.000001 0.000001 0.000002 2.601648 1.523889 11.779634 -18.638411 -7.238735 -3.338950 20.835402 -7.100957 4.826434 -16.297815 5.392364 -34.679230 -0.000008 0.000007 0.000006 -0.000002 0.000002 0.000006 0.000007 0.000011 -0.000000 -0.000000 0.000007 -0.000000 -0.000001 0.000003 -0.000002 -0.000000 -0.000003 0.000000 -0.000003 -0.000000 0.000001 -0.000002 -0.000001 -0.000000 0.000002 0.000001 0.000002 -0.000003 0.000003 0.000000 0.000000 0.000001 0.000000 -0.000003 -0.000002 0.000001 -0.000003 0.000000 0.000002 0.000001 -0.000011 0.000000 0.000002 0.000014 -0.000002 0.000002 0.000007 -0.000002 0.784510 -1.444977 -3.562608 2.242457 3.432191 -5.248230 -7.002347 -1.273755 0.664168 8.683301 0.390990 -24.518721 0.000012 0.000008 -0.000003 -0.000001 -0.000002 -0.000006 -0.000002 0.000007 0.000008 0.000002 0.000000 -0.000001 -0.000007 0.000023 0.000001 0.000007 -0.000014 0.000004 -0.000003 0.000009 0.000002 0.000002 -0.000009 0.000001 -0.000004 0.000013 -0.000003 0.000000 -0.000003 0.000002 -0.000002 0.000010 -0.000003 0.000001 0.000005 -0.000006 0.000000 -0.000007 -0.000002 -0.000001 -0.000001 0.000004 0.000003 0.000000 0.000001 0.000005 -0.000019 0.000004 0.000001 0.000000 -0.000006 -0.000017 0.000001 -0.000001 -0.000012 -0.000002 -0.000004 0.000002 -0.000001 0.000005 -0.000010 0.000001 -0.000004 0.000000 0.000002 -0.000004 -0.000012 0.000001 -0.000006 0.000003 -0.000000 -0.000000 0.000001 0.000004 -0.000008 -0.000006 -0.000000 0.000007 0.000010 -0.000004 -0.000004 -0.000003 0.000001 -0.000000 -0.000014 0.000002 -0.000002 
3.788602 -65.126442 69.664124 -0.442536 6.772782 109.549404 0.000008 -0.000002 -0.000018 -6.654279 -4.613527 5.504912 -18.221278 -12.055789 7.337485 -4.378584 12.548077 8.453783 -0.000005 0.000005 0.000001 0.000002 0.000001 -0.000003 -2.098772 6.779967 -6.498652 5.953622 9.557083 -13.670092 -6.176327 -16.050934 -8.232295 0.000000 -0.000000 0.000000 0.000001 0.000002 -0.000003 -5.506899 3.417169 1.860757 3.105412 -0.500661 0.520514 3.097691 -0.572139 0.526845 -0.508560 -0.091247 0.234978 -5.488692 1.942724 10.401670 0.000001 -0.000000 -0.000007 0.000002 0.000000 0.000001 -0.000000 -0.000001 -0.000001 -0.000001 0.000000 -0.000003 0.000015 0.000001 0.000003 0.000001 -0.000000 0.000008 0.000000 0.000001 0.000000 0.000000 -0.000005 -0.000007 0.000001 -0.000000 -0.000001 2.515564 1.279270 11.543599 -17.311311 -7.910676 -2.107741 20.316283 -6.950221 4.677971 -14.415130 5.407375 -35.257846 0.000003 -0.000001 0.000004 0.000004 0.000004 0.000003 0.000009 0.000013 -0.000005 0.000003 0.000003 -0.000001 -0.000000 0.000006 -0.000002 -0.000003 -0.000006 -0.000003 0.000000 -0.000006 0.000001 -0.000003 -0.000013 0.000001 0.000002 0.000018 0.000000 -0.000001 -0.000013 0.000002 0.000001 0.000003 -0.000000 -0.000006 0.000001 0.000000 -0.000000 0.000000 0.000000 -0.000000 -0.000006 -0.000002 0.000002 0.000004 -0.000001 0.000001 0.000000 0.000001 0.800895 -1.472227 -3.643635 2.324211 3.913068 -6.084061 -6.455426 -1.171351 0.617902 8.432729 0.256900 -22.898079 0.000006 0.000000 0.000009 -0.000007 0.000006 0.000004 -0.000010 0.000002 0.000003 0.000003 -0.000005 0.000003 -0.000000 0.000005 0.000001 -0.000001 0.000004 0.000004 0.000001 -0.000012 0.000006 0.000001 0.000000 0.000003 -0.000001 0.000011 -0.000001 0.000004 0.000000 0.000006 0.000001 -0.000009 -0.000002 0.000007 -0.000021 -0.000004 0.000003 -0.000007 -0.000003 -0.000010 0.000030 0.000005 0.000005 0.000001 0.000004 0.000003 -0.000021 0.000003 -0.000003 -0.000000 0.000000 -0.000017 0.000002 0.000002 0.000002 -0.000001 -0.000000 0.000000 0.000001 -0.000004 -0.000006 0.000005 -0.000001 -0.000003 0.000001 0.000001 -0.000014 0.000000 0.000001 -0.000003 -0.000001 -0.000003 0.000001 0.000001 -0.000007 -0.000001 -0.000000 0.000006 -0.000010 0.000003 0.000017 -0.000002 0.000000 0.000001 -0.000014 0.000001 -0.000003 
3.911382 -64.725441 69.586334 -0.736246 6.701474 111.471283 0.000003 -0.000005 -0.000002 -6.082910 -4.717627 5.339555 -19.508690 -12.833656 7.842620 -4.373140 11.900642 8.649783 -0.000005 0.000001 -0.000000 0.000003 0.000001 0.000005 -1.328214 6.748421 -6.972030 5.746836 9.524292 -13.668852 -6.589020 -16.285287 -9.822784 -0.000012 0.000006 -0.000001 0.000001 0.000002 -0.000000 -5.450794 3.607010 1.932602 3.124454 -0.583477 0.528544 3.114079 -0.657628 0.535843 -0.509554 -0.073727 0.197030 -5.450659 1.783649 11.237118 0.000000 0.000000 -0.000003 0.000001 0.000000 -0.000001 -0.000000 -0.000002 0.000011 -0.000000 -0.000001 0.000006 0.000010 0.000002 0.000013 0.000004 0.000002 0.000006 -0.000000 -0.000002 -0.000006 0.000001 -0.000001 -0.000007 0.000001 -0.000002 0.000004 2.429090 1.029518 11.308178 -16.105441 -8.435461 -0.914952 19.780732 -6.793130 4.526156 -12.431675 5.399017 -35.886384 -0.000003 0.000002 0.000009 -0.000002 0.000000 -0.000003 0.000002 0.000015 0.000001 0.000002 0.000003 -0.000002 -0.000001 0.000010 -0.000000 -0.000002 -0.000008 -0.000001 -0.000000 0.000002 0.000000 -0.000001 0.000014 -0.000002 0.000003 0.000020 -0.000001 -0.000001 0.000001 -0.000000 0.000001 0.000008 -0.000000 -0.000004 0.000006 -0.000001 0.000001 0.000004 0.000001 0.000001 -0.000016 -0.000000 0.000001 0.000000 -0.000001 -0.000001 -0.000002 -0.000004 0.813062 -1.484712 -3.708223 2.479034 4.345501 -6.840900 -5.871398 -1.062534 0.567420 8.178598 0.158934 -21.320690 0.000014 0.000007 0.000006 -0.000004 -0.000003 -0.000001 -0.000008 -0.000003 -0.000003 -0.000003 0.000010 0.000001 -0.000006 0.000030 0.000001 0.000004 -0.000004 0.000002 0.000003 -0.000007 0.000003 0.000001 -0.000009 -0.000001 -0.000005 0.000027 -0.000004 0.000002 -0.000003 0.000002 0.000004 -0.000000 -0.000003 0.000001 0.000005 -0.000005 0.000001 -0.000016 -0.000004 0.000001 -0.000002 0.000006 0.000002 0.000000 0.000003 -0.000000 -0.000001 0.000001 0.000001 -0.000001 -0.000004 -0.000013 0.000001 -0.000000 0.000000 -0.000001 0.000003 0.000003 -0.000000 -0.000000 0.000001 0.000000 -0.000005 -0.000004 0.000002 -0.000002 -0.000009 0.000002 0.000001 -0.000001 -0.000001 0.000003 0.000002 0.000002 -0.000001 0.000002 -0.000002 0.000003 0.000010 -0.000004 -0.000004 -0.000001 -0.000004 -0.000001 -0.000014 0.000001 0.000000 
4.037420 -64.274208 69.506432 -1.020882 6.601260 113.375942 -0.000001 -0.000008 -0.000010 -5.407605 -4.788864 5.129485 -20.925845 -13.508701 8.183221 -4.214003 11.358512 9.005800 -0.000003 0.000009 0.000001 0.000001 0.000001 0.000004 -0.447404 6.722986 -7.455804 5.424493 9.488222 -13.677904 -6.985368 -16.559983 -11.406092 -0.000016 0.000001 -0.000002 0.000003 0.000004 -0.000003 -5.384585 3.809375 2.020886 3.129111 -0.659710 0.543456 3.116141 -0.736376 0.552123 -0.513687 -0.054052 0.158074 -5.411734 1.606619 12.100998 0.000001 0.000000 0.000004 0.000004 0.000004 0.000002 0.000001 -0.000000 -0.000005 0.000011 -0.000008 0.000006 0.000011 0.000002 0.000018 0.000002 0.000002 0.000013 -0.000000 -0.000001 -0.000009 0.000000 -0.000006 -0.000002 0.000003 -0.000000 -0.000002 2.341311 0.775846 11.070964 -15.020575 -8.826246 0.237840 19.269055 -6.641559 4.382369 -10.369106 5.365589 -36.561702 -0.000001 0.000001 0.000015 0.000001 0.000003 0.000009 -0.000000 0.000011 -0.000004 0.000003 0.000005 -0.000001 -0.000001 -0.000001 -0.000001 -0.000002 -0.000007 -0.000002 -0.000002 0.000002 0.000001 -0.000002 0.000001 -0.000001 0.000001 0.000020 0.000003 -0.000003 -0.000007 0.000002 0.000002 0.000011 -0.000001 -0.000003 -0.000011 0.000000 0.000002 -0.000005 0.000004 0.000001 -0.000004 0.000000 0.000000 0.000013 -0.000001 0.000001 0.000003 0.000008 0.819856 -1.476267 -3.752877 2.728900 4.719183 -7.480900 -5.263153 -0.949767 0.513686 7.942832 0.101974 -19.835114 0.000006 0.000003 0.000009 -0.000006 -0.000006 -0.000005 -0.000009 0.000011 0.000003 -0.000001 -0.000002 -0.000000 0.000001 -0.000004 0.000000 -0.000005 0.000008 -0.000003 -0.000001 -0.000010 0.000001 0.000001 -0.000007 -0.000000 -0.000007 0.000010 -0.000003 0.000002 -0.000002 -0.000004 -0.000002 0.000010 -0.000003 0.000007 -0.000009 -0.000003 0.000001 -0.000009 -0.000004 0.000000 0.000013 0.000006 -0.000006 0.000011 0.000003 0.000000 -0.000020 0.000003 -0.000002 -0.000000 -0.000000 -0.000017 0.000001 0.000001 -0.000002 0.000000 -0.000002 0.000000 -0.000001 -0.000006 0.000005 -0.000002 -0.000001 -0.000005 0.000001 0.000004 -0.000010 0.000001 -0.000002 -0.000001 0.000001 0.000003 0.000000 0.000003 -0.000002 -0.000007 -0.000003 0.000007 0.000009 -0.000004 -0.000001 -0.000004 -0.000000 -0.000004 -0.000017 0.000003 -0.000001 
